<svg width="133" height="32" viewBox="0 0 133 32" fill="none" xmlns="http://www.w3.org/2000/svg">
<path d="M68.5 14.8986C69.1667 15.2835 69.1667 16.2458 68.5 16.6307L60.25 21.3938C59.5833 21.7787 58.75 21.2976 58.75 20.5278L58.75 11.0015C58.75 10.2317 59.5833 9.75057 60.25 10.1355L68.5 14.8986Z" fill="white"/>
<path d="M17 1C17 0.447715 17.4477 0 18 0H31C31.5523 0 32 0.447715 32 1V14C32 14.5523 31.5523 15 31 15H18C17.4477 15 17 14.5523 17 14V1Z" fill="#DDDDDD"/>
<path d="M17 18C17 17.4477 17.4477 17 18 17H31C31.5523 17 32 17.4477 32 18V31C32 31.5523 31.5523 32 31 32H18C17.4477 32 17 31.5523 17 31V18Z" fill="#67A258"/>
<path d="M0 18C0 17.4477 0.447715 17 1 17H14C14.5523 17 15 17.4477 15 18V31C15 31.5523 14.5523 32 14 32H1C0.447715 32 0 31.5523 0 31V18Z" fill="#DDDDDD"/>
<path d="M0 1C0 0.447715 0.447715 0 1 0H14C14.5523 0 15 0.447715 15 1V14C15 14.5523 14.5523 15 14 15H1C0.447715 15 0 14.5523 0 14V1Z" fill="#DDDDDD"/>
<g opacity="0.5">
<path d="M112 1C112 0.447715 112.448 0 113 0H126C126.552 0 127 0.447715 127 1V14C127 14.5523 126.552 15 126 15H113C112.448 15 112 14.5523 112 14V1Z" fill="#DDDDDD"/>
<path d="M112 18C112 17.4477 112.448 17 113 17H126C126.552 17 127 17.4477 127 18V31C127 31.5523 126.552 32 126 32H113C112.448 32 112 31.5523 112 31V18Z" fill="#67A258"/>
<path d="M95 18C95 17.4477 95.4477 17 96 17H109C109.552 17 110 17.4477 110 18V31C110 31.5523 109.552 32 109 32H96C95.4477 32 95 31.5523 95 31V18Z" fill="#DDDDDD"/>
<path d="M95 1C95 0.447715 95.4477 0 96 0H109C109.552 0 110 0.447715 110 1V14C110 14.5523 109.552 15 109 15H96C95.4477 15 95 14.5523 95 14V1Z" fill="#DDDDDD"/>
</g>
<path d="M94.0099 19.5439C94.5067 19.5439 94.91 19.4893 95.2199 19.3799C95.8078 19.1702 96.1017 18.7806 96.1017 18.2109C96.1017 17.8783 95.9559 17.6208 95.6642 17.4385C95.3726 17.2607 94.9146 17.1035 94.2902 16.9668L93.2238 16.7275C92.1756 16.4906 91.451 16.2331 91.05 15.9551C90.371 15.4902 90.0314 14.7633 90.0314 13.7744C90.0314 12.8721 90.3596 12.1224 91.0158 11.5254C91.6721 10.9284 92.6359 10.6299 93.9074 10.6299C94.9693 10.6299 95.8739 10.9124 96.6213 11.4775C97.3732 12.0381 97.7674 12.8538 97.8039 13.9248H95.7805C95.744 13.3187 95.4797 12.888 94.9875 12.6328C94.6594 12.4642 94.2515 12.3799 93.7639 12.3799C93.2215 12.3799 92.7886 12.4893 92.465 12.708C92.1415 12.9268 91.9797 13.2321 91.9797 13.624C91.9797 13.984 92.1392 14.2529 92.4582 14.4307C92.6633 14.5492 93.1008 14.6882 93.7707 14.8477L95.507 15.2646C96.2681 15.4469 96.8423 15.6908 97.2297 15.9961C97.8312 16.4701 98.132 17.1559 98.132 18.0537C98.132 18.9743 97.7788 19.7399 97.0724 20.3506C96.3706 20.9567 95.3771 21.2598 94.092 21.2598C92.7795 21.2598 91.7473 20.9613 90.9953 20.3643C90.2433 19.7627 89.8674 18.9378 89.8674 17.8896H91.8771C91.9409 18.3499 92.0663 18.694 92.2531 18.9219C92.5949 19.3366 93.1805 19.5439 94.0099 19.5439Z" fill="white"/>
<path d="M109.812 10.9238V12.708H106.797V21H104.678V12.708H101.65V10.9238H109.812Z" fill="white"/>
<path d="M118.71 18.9287H114.998L114.3 21H112.099L115.695 10.9238H118.074L121.642 21H119.359L118.71 18.9287ZM118.122 17.1924L116.864 13.2275L115.565 17.1924H118.122Z" fill="white"/>
<path d="M132.577 10.9238L129.207 17.2129V21H127.101V17.2129L123.615 10.9238H126.096L128.188 15.3125L130.191 10.9238H132.577Z" fill="white"/>
</svg>
