<svg width="157" height="32" viewBox="0 0 157 32" fill="none" xmlns="http://www.w3.org/2000/svg">
<path d="M83.5 17.8986C84.1667 18.2835 84.1667 19.2458 83.5 19.6307L75.25 24.3938C74.5833 24.7787 73.75 24.2976 73.75 23.5278L73.75 14.0015C73.75 13.2317 74.5833 12.7506 75.25 13.1355L83.5 17.8986Z" fill="white"/>
<path d="M17 1C17 0.447715 17.4477 0 18 0H31C31.5523 0 32 0.447715 32 1V14C32 14.5523 31.5523 15 31 15H18C17.4477 15 17 14.5523 17 14V1Z" fill="#DDDDDD"/>
<path d="M17 18C17 17.4477 17.4477 17 18 17H31C31.5523 17 32 17.4477 32 18V31C32 31.5523 31.5523 32 31 32H18C17.4477 32 17 31.5523 17 31V18Z" fill="#67A258"/>
<path d="M0 18C0 17.4477 0.447715 17 1 17H14C14.5523 17 15 17.4477 15 18V31C15 31.5523 14.5523 32 14 32H1C0.447715 32 0 31.5523 0 31V18Z" fill="#DDDDDD"/>
<path d="M34 18C34 17.4477 34.4477 17 35 17H48C48.5523 17 49 17.4477 49 18V31C49 31.5523 48.5523 32 48 32H35C34.4477 32 34 31.5523 34 31V18Z" fill="#DDDDDD"/>
<g opacity="0.5">
<path d="M125 1C125 0.447715 125.448 0 126 0H139C139.552 0 140 0.447715 140 1V14C140 14.5523 139.552 15 139 15H126C125.448 15 125 14.5523 125 14V1Z" fill="#DDDDDD"/>
<path d="M125 18C125 17.4477 125.448 17 126 17H139C139.552 17 140 17.4477 140 18V31C140 31.5523 139.552 32 139 32H126C125.448 32 125 31.5523 125 31V18Z" fill="#67A258"/>
<path d="M108 18C108 17.4477 108.448 17 109 17H122C122.552 17 123 17.4477 123 18V31C123 31.5523 122.552 32 122 32H109C108.448 32 108 31.5523 108 31V18Z" fill="#DDDDDD"/>
<path d="M142 18C142 17.4477 142.448 17 143 17H156C156.552 17 157 17.4477 157 18V31C157 31.5523 156.552 32 156 32H143C142.448 32 142 31.5523 142 31V18Z" fill="#DDDDDD"/>
</g>
<path d="M115.01 19.5439C115.507 19.5439 115.91 19.4893 116.22 19.3799C116.808 19.1702 117.102 18.7806 117.102 18.2109C117.102 17.8783 116.956 17.6208 116.664 17.4385C116.373 17.2607 115.915 17.1035 115.29 16.9668L114.224 16.7275C113.176 16.4906 112.451 16.2331 112.05 15.9551C111.371 15.4902 111.031 14.7633 111.031 13.7744C111.031 12.8721 111.36 12.1224 112.016 11.5254C112.672 10.9284 113.636 10.6299 114.907 10.6299C115.969 10.6299 116.874 10.9124 117.621 11.4775C118.373 12.0381 118.767 12.8538 118.804 13.9248H116.78C116.744 13.3187 116.48 12.888 115.987 12.6328C115.659 12.4642 115.251 12.3799 114.764 12.3799C114.222 12.3799 113.789 12.4893 113.465 12.708C113.141 12.9268 112.98 13.2321 112.98 13.624C112.98 13.984 113.139 14.2529 113.458 14.4307C113.663 14.5492 114.101 14.6882 114.771 14.8477L116.507 15.2646C117.268 15.4469 117.842 15.6908 118.23 15.9961C118.831 16.4701 119.132 17.1559 119.132 18.0537C119.132 18.9743 118.779 19.7399 118.072 20.3506C117.371 20.9567 116.377 21.2598 115.092 21.2598C113.779 21.2598 112.747 20.9613 111.995 20.3643C111.243 19.7627 110.867 18.9378 110.867 17.8896H112.877C112.941 18.3499 113.066 18.694 113.253 18.9219C113.595 19.3366 114.181 19.5439 115.01 19.5439Z" fill="white"/>
<path d="M130.812 10.9238V12.708H127.797V21H125.678V12.708H122.65V10.9238H130.812Z" fill="white"/>
<path d="M139.71 18.9287H135.998L135.3 21H133.099L136.695 10.9238H139.074L142.642 21H140.359L139.71 18.9287ZM139.122 17.1924L137.864 13.2275L136.565 17.1924H139.122Z" fill="white"/>
<path d="M153.577 10.9238L150.207 17.2129V21H148.101V17.2129L144.615 10.9238H147.096L149.188 15.3125L151.191 10.9238H153.577Z" fill="white"/>
</svg>
