<svg width="157" height="32" viewBox="0 0 157 32" fill="none" xmlns="http://www.w3.org/2000/svg">
<path d="M83.5 17.634C84.1667 18.0189 84.1667 18.9811 83.5 19.366L75.25 24.1291C74.5833 24.514 73.75 24.0329 73.75 23.2631L73.75 13.7368C73.75 12.967 74.5833 12.4859 75.25 12.8708L83.5 17.634Z" fill="white"/>
<path d="M17 1C17 0.447715 17.4477 0 18 0H31C31.5523 0 32 0.447715 32 1V14C32 14.5523 31.5523 15 31 15H18C17.4477 15 17 14.5523 17 14V1Z" fill="#DDDDDD"/>
<path d="M0 18C0 17.4477 0.447715 17 1 17H14C14.5523 17 15 17.4477 15 18V31C15 31.5523 14.5523 32 14 32H1C0.447715 32 0 31.5523 0 31V18Z" fill="#DDDDDD"/>
<path d="M34 18C34 17.4477 34.4477 17 35 17H48C48.5523 17 49 17.4477 49 18V31C49 31.5523 48.5523 32 48 32H35C34.4477 32 34 31.5523 34 31V18Z" fill="#DDDDDD"/>
<path d="M125 1C125 0.447715 125.448 0 126 0H139C139.552 0 140 0.447715 140 1V14C140 14.5523 139.552 15 139 15H126C125.448 15 125 14.5523 125 14V1Z" fill="#DDDDDD"/>
<path d="M125 18C125 17.4477 125.448 17 126 17H139C139.552 17 140 17.4477 140 18V31C140 31.5523 139.552 32 139 32H126C125.448 32 125 31.5523 125 31V18Z" fill="#67A258"/>
<path d="M108 18C108 17.4477 108.448 17 109 17H122C122.552 17 123 17.4477 123 18V31C123 31.5523 122.552 32 122 32H109C108.448 32 108 31.5523 108 31V18Z" fill="#DDDDDD"/>
<path d="M142 18C142 17.4477 142.448 17 143 17H156C156.552 17 157 17.4477 157 18V31C157 31.5523 156.552 32 156 32H143C142.448 32 142 31.5523 142 31V18Z" fill="#DDDDDD"/>
</svg>
