<svg width="123" height="15" viewBox="0 0 123 15" fill="none" xmlns="http://www.w3.org/2000/svg">
<path d="M66.5 6.89861C67.1667 7.28351 67.1667 8.24576 66.5 8.63066L58.25 13.3938C57.5833 13.7787 56.75 13.2976 56.75 12.5278L56.75 3.00149C56.75 2.23169 57.5833 1.75057 58.25 2.13547L66.5 6.89861Z" fill="white"/>
<path d="M17 1C17 0.447715 17.4477 0 18 0H31C31.5523 0 32 0.447715 32 1V14C32 14.5523 31.5523 15 31 15H18C17.4477 15 17 14.5523 17 14V1Z" fill="#67A258"/>
<path d="M0 1C0 0.447715 0.447715 0 1 0H14C14.5523 0 15 0.447715 15 1V14C15 14.5523 14.5523 15 14 15H1C0.447715 15 0 14.5523 0 14V1Z" fill="#DDDDDD"/>
<path fill-rule="evenodd" clip-rule="evenodd" d="M108.617 14.9241L109 14.001V14H110.083V15H109C108.864 15 108.735 14.973 108.617 14.9241ZM120.917 15V14H122L122.383 14.9241C122.265 14.973 122.136 15 122 15H120.917ZM123 2.08333H122V1L122.924 0.617212C122.973 0.73512 123 0.864408 123 1V2.08333ZM110.083 0H109C108.864 0 108.735 0.0269861 108.617 0.0758805L109 0.998965V1L108.076 0.617212C108.027 0.73512 108 0.864408 108 1V2.08333H109V1L110.083 1V0ZM108.076 14.3828L109 14L109 12.9167H108V14C108 14.1356 108.027 14.2649 108.076 14.3828ZM108 10.75H109V8.58333H108V10.75ZM108 6.41667H109V4.25H108V6.41667ZM112.25 0V1H114.417V0H112.25ZM116.583 0V1H118.75V0H116.583ZM120.917 0V1H122L122.383 0.0758806C122.265 0.0269862 122.136 0 122 0H120.917ZM123 4.25H122V6.41667H123V4.25ZM123 8.58333H122V10.75H123V8.58333ZM123 12.9167H122V14L122.924 14.3828C122.973 14.2649 123 14.1356 123 14V12.9167ZM118.75 15V14H116.583V15H118.75ZM114.417 15V14H112.25V15H114.417Z" fill="white"/>
<path fill-rule="evenodd" clip-rule="evenodd" d="M91.6172 14.9241L92 14.001V14H93.0833V15H92C91.8644 15 91.7351 14.973 91.6172 14.9241ZM103.917 15V14H105L105.383 14.9241C105.265 14.973 105.136 15 105 15H103.917ZM106 2.08333H105V1L105.924 0.617212C105.973 0.73512 106 0.864408 106 1V2.08333ZM93.0833 0H92C91.8644 0 91.7351 0.0269861 91.6172 0.0758805L92 0.998965V1L91.0759 0.617212C91.027 0.73512 91 0.864408 91 1V2.08333H92V1L93.0833 1V0ZM91.0759 14.3828L92 14L92 12.9167H91V14C91 14.1356 91.027 14.2649 91.0759 14.3828ZM91 10.75H92V8.58333H91V10.75ZM91 6.41667H92V4.25H91V6.41667ZM95.25 0V1H97.4167V0H95.25ZM99.5833 0V1H101.75V0H99.5833ZM103.917 0V1H105L105.383 0.0758806C105.265 0.0269862 105.136 0 105 0H103.917ZM106 4.25H105V6.41667H106V4.25ZM106 8.58333H105V10.75H106V8.58333ZM106 12.9167H105V14L105.924 14.3828C105.973 14.2649 106 14.1356 106 14V12.9167ZM101.75 15V14H99.5833V15H101.75ZM97.4167 15V14H95.25V15H97.4167Z" fill="white"/>
</svg>
