<svg width="157" height="49" viewBox="0 0 157 49" fill="none" xmlns="http://www.w3.org/2000/svg">
<path d="M0 1C0 0.447715 0.447715 0 1 0H14C14.5523 0 15 0.447715 15 1V14C15 14.5523 14.5523 15 14 15H1C0.447715 15 0 14.5523 0 14V1Z" fill="#DDDDDD"/>
<path d="M34 35C34 34.4477 34.4477 34 35 34H48C48.5523 34 49 34.4477 49 35V48C49 48.5523 48.5523 49 48 49H35C34.4477 49 34 48.5523 34 48V35Z" fill="#DDDDDD"/>
<path d="M17 18C17 17.4477 17.4477 17 18 17H31C31.5523 17 32 17.4477 32 18V31C32 31.5523 31.5523 32 31 32H18C17.4477 32 17 31.5523 17 31V18Z" fill="#67A258"/>
<path d="M0 18C0 17.4477 0.447715 17 1 17H14C14.5523 17 15 17.4477 15 18V31C15 31.5523 14.5523 32 14 32H1C0.447715 32 0 31.5523 0 31V18Z" fill="#DDDDDD"/>
<path d="M34 18C34 17.4477 34.4477 17 35 17H48C48.5523 17 49 17.4477 49 18V31C49 31.5523 48.5523 32 48 32H35C34.4477 32 34 31.5523 34 31V18Z" fill="#DDDDDD"/>
<path d="M108 1C108 0.447715 108.448 0 109 0H122C122.552 0 123 0.447715 123 1V14C123 14.5523 122.552 15 122 15H109C108.448 15 108 14.5523 108 14V1Z" fill="#DDDDDD"/>
<path d="M142 35C142 34.4477 142.448 34 143 34H156C156.552 34 157 34.4477 157 35V48C157 48.5523 156.552 49 156 49H143C142.448 49 142 48.5523 142 48V35Z" fill="#DDDDDD"/>
<path fill-rule="evenodd" clip-rule="evenodd" d="M125.617 31.9241L126 31.001V31H127.083V32H126C125.864 32 125.735 31.973 125.617 31.9241ZM137.917 32V31H139L139.383 31.9241C139.265 31.973 139.136 32 139 32H137.917ZM140 19.0833H139V18L139.924 17.6172C139.973 17.7351 140 17.8644 140 18V19.0833ZM127.083 17H126C125.864 17 125.735 17.027 125.617 17.0759L126 17.999V18L125.076 17.6172C125.027 17.7351 125 17.8644 125 18V19.0833H126V18L127.083 18V17ZM125.076 31.3828L126 31L126 29.9167H125V31C125 31.1356 125.027 31.2649 125.076 31.3828ZM125 27.75H126V25.5833H125V27.75ZM125 23.4167H126V21.25H125V23.4167ZM129.25 17V18H131.417V17H129.25ZM133.583 17V18H135.75V17H133.583ZM137.917 17V18H139L139.383 17.0759C139.265 17.027 139.136 17 139 17H137.917ZM140 21.25H139V23.4167H140V21.25ZM140 25.5833H139V27.75H140V25.5833ZM140 29.9167H139V31L139.924 31.3828C139.973 31.2649 140 31.1356 140 31V29.9167ZM135.75 32V31H133.583V32H135.75ZM131.417 32V31H129.25V32H131.417Z" fill="white"/>
<path d="M108 18C108 17.4477 108.448 17 109 17H122C122.552 17 123 17.4477 123 18V31C123 31.5523 122.552 32 122 32H109C108.448 32 108 31.5523 108 31V18Z" fill="#DDDDDD"/>
<path d="M142 18C142 17.4477 142.448 17 143 17H156C156.552 17 157 17.4477 157 18V31C157 31.5523 156.552 32 156 32H143C142.448 32 142 31.5523 142 31V18Z" fill="#DDDDDD"/>
<path d="M83.5 23.8986C84.1667 24.2835 84.1667 25.2458 83.5 25.6307L75.25 30.3938C74.5833 30.7787 73.75 30.2976 73.75 29.5278L73.75 20.0015C73.75 19.2317 74.5833 18.7506 75.25 19.1355L83.5 23.8986Z" fill="white"/>
</svg>
