<svg width="161" height="32" viewBox="0 0 161 32" fill="none" xmlns="http://www.w3.org/2000/svg">
<path d="M0 1C0 0.447715 0.447715 0 1 0H14C14.5523 0 15 0.447715 15 1V14C15 14.5523 14.5523 15 14 15H1C0.447715 15 0 14.5523 0 14V1Z" fill="#DDDDDD"/>
<path d="M17 1C17 0.447715 17.4477 0 18 0H31C31.5523 0 32 0.447715 32 1V14C32 14.5523 31.5523 15 31 15H18C17.4477 15 17 14.5523 17 14V1Z" fill="#DDDDDD"/>
<path d="M17 18C17 17.4477 17.4477 17 18 17H31C31.5523 17 32 17.4477 32 18V31C32 31.5523 31.5523 32 31 32H18C17.4477 32 17 31.5523 17 31V18Z" fill="#DDDDDD"/>
<path d="M0 18C0 17.4477 0.447715 17 1 17H14C14.5523 17 15 17.4477 15 18V31C15 31.5523 14.5523 32 14 32H1C0.447715 32 0 31.5523 0 31V18Z" fill="#DDDDDD"/>
<path d="M34 1C34 0.447715 34.4477 0 35 0H48C48.5523 0 49 0.447715 49 1V14C49 14.5523 48.5523 15 48 15H35C34.4477 15 34 14.5523 34 14V1Z" fill="#DDDDDD"/>
<path d="M145.25 18C145.25 17.4477 145.698 17 146.25 17H159.25C159.802 17 160.25 17.4477 160.25 18V31C160.25 31.5523 159.802 32 159.25 32H146.25C145.698 32 145.25 31.5523 145.25 31V18Z" fill="#67A258"/>
<path d="M111.25 1C111.25 0.447715 111.698 0 112.25 0H125.25C125.802 0 126.25 0.447715 126.25 1V14C126.25 14.5523 125.802 15 125.25 15H112.25C111.698 15 111.25 14.5523 111.25 14V1Z" fill="#DDDDDD"/>
<path fill-rule="evenodd" clip-rule="evenodd" d="M128.867 31.9241L129.25 31.001V31H130.333V32H129.25C129.114 32 128.985 31.973 128.867 31.9241ZM141.167 32V31H142.25L142.633 31.9241C142.515 31.973 142.386 32 142.25 32H141.167ZM143.25 19.0833H142.25V18L143.174 17.6172C143.223 17.7351 143.25 17.8644 143.25 18V19.0833ZM130.333 17H129.25C129.114 17 128.985 17.027 128.867 17.0759L129.25 17.999V18L128.326 17.6172C128.277 17.7351 128.25 17.8644 128.25 18V19.0833H129.25V18L130.333 18V17ZM128.326 31.3828L129.25 31L129.25 29.9167H128.25V31C128.25 31.1356 128.277 31.2649 128.326 31.3828ZM128.25 27.75H129.25V25.5833H128.25V27.75ZM128.25 23.4167H129.25V21.25H128.25V23.4167ZM132.5 17V18H134.667V17H132.5ZM136.833 17V18H139V17H136.833ZM141.167 17V18H142.25L142.633 17.0759C142.515 17.027 142.386 17 142.25 17H141.167ZM143.25 21.25H142.25V23.4167H143.25V21.25ZM143.25 25.5833H142.25V27.75H143.25V25.5833ZM143.25 29.9167H142.25V31L143.174 31.3828C143.223 31.2649 143.25 31.1356 143.25 31V29.9167ZM139 32V31H136.833V32H139ZM134.667 32V31H132.5V32H134.667Z" fill="white"/>
<path fill-rule="evenodd" clip-rule="evenodd" d="M128.867 14.9241L129.25 14.001V14H130.333V15H129.25C129.114 15 128.985 14.973 128.867 14.9241ZM141.167 15V14H142.25L142.633 14.9241C142.515 14.973 142.386 15 142.25 15H141.167ZM143.25 2.08333H142.25V1L143.174 0.617212C143.223 0.73512 143.25 0.864408 143.25 1V2.08333ZM130.333 0H129.25C129.114 0 128.985 0.0269861 128.867 0.0758805L129.25 0.998965V1L128.326 0.617212C128.277 0.73512 128.25 0.864408 128.25 1V2.08333H129.25V1L130.333 1V0ZM128.326 14.3828L129.25 14L129.25 12.9167H128.25V14C128.25 14.1356 128.277 14.2649 128.326 14.3828ZM128.25 10.75H129.25V8.58333H128.25V10.75ZM128.25 6.41667H129.25V4.25H128.25V6.41667ZM132.5 0V1H134.667V0H132.5ZM136.833 0V1H139V0H136.833ZM141.167 0V1H142.25L142.633 0.0758806C142.515 0.0269862 142.386 0 142.25 0H141.167ZM143.25 4.25H142.25V6.41667H143.25V4.25ZM143.25 8.58333H142.25V10.75H143.25V8.58333ZM143.25 12.9167H142.25V14L143.174 14.3828C143.223 14.2649 143.25 14.1356 143.25 14V12.9167ZM139 15V14H136.833V15H139ZM134.667 15V14H132.5V15H134.667Z" fill="white"/>
<path d="M111.25 18C111.25 17.4477 111.698 17 112.25 17H125.25C125.802 17 126.25 17.4477 126.25 18V31C126.25 31.5523 125.802 32 125.25 32H112.25C111.698 32 111.25 31.5523 111.25 31V18Z" fill="#DDDDDD"/>
<path d="M145.25 1C145.25 0.447715 145.698 0 146.25 0H159.25C159.802 0 160.25 0.447715 160.25 1V14C160.25 14.5523 159.802 15 159.25 15H146.25C145.698 15 145.25 14.5523 145.25 14V1Z" fill="#DDDDDD"/>
<path d="M84.75 14.8986C85.4167 15.2835 85.4167 16.2458 84.75 16.6307L76.5 21.3938C75.8333 21.7787 75 21.2976 75 20.5278L75 11.0015C75 10.2317 75.8333 9.75057 76.5 10.1355L84.75 14.8986Z" fill="white"/>
</svg>
